
<!DOCTYPE svg PUBLIC "-//W3C//DTD SVG 20010904//EN"
 "http://www.w3.org/TR/2001/REC-SVG-20010904/DTD/svg10.dtd">
<svg version="1.0" xmlns="http://www.w3.org/2000/svg"
 width="300.000000pt" height="300.000000pt" viewBox="0 0 300.000000 300.000000"
 preserveAspectRatio="xMidYMid meet">
<metadata>
Created by potrace 1.10, written by Peter Selinger 2001-2011
</metadata>
<g transform="translate(0.000000,300.000000) scale(0.100000,-0.100000)"
fill="#000000" stroke="none">
<path d="M874 2186 c-38 -17 -98 -75 -121 -119 -10 -19 -17 -56 -17 -90 -1
-53 2 -61 28 -84 23 -20 37 -24 64 -20 38 7 102 51 102 72 0 7 -15 -2 -34 -21
-41 -41 -101 -48 -131 -14 -30 33 -24 110 12 168 55 89 166 139 207 93 18 -20
18 -23 2 -64 -20 -54 -20 -91 0 -111 21 -21 27 -20 63 10 17 14 31 23 31 20 0
-4 -19 -43 -41 -89 -56 -112 -123 -210 -167 -247 -34 -28 -43 -30 -113 -30
-72 0 -76 1 -87 25 -16 35 -15 53 1 31 12 -16 14 -16 26 -2 7 9 11 23 7 31 -9
24 -35 18 -48 -11 -10 -22 -9 -31 5 -57 l18 -30 -62 -156 c-34 -86 -65 -159
-69 -164 -3 -4 -37 69 -74 163 l-68 170 -145 0 -144 0 200 -392 c187 -369 201
-393 228 -396 27 -2 32 6 222 382 166 328 199 387 223 397 15 6 25 15 23 19
-3 5 0 12 6 16 8 5 9 3 4 -7 -4 -8 7 0 24 16 18 17 80 100 137 186 103 154
179 240 229 259 44 17 110 12 138 -10 30 -24 51 -81 43 -116 -5 -17 -3 -23 4
-19 18 11 11 80 -13 116 -55 81 -144 80 -250 -4 -23 -18 -88 -104 -162 -217
-68 -103 -129 -191 -136 -195 -6 -4 -10 -4 -7 1 2 5 16 34 31 65 15 31 42 114
61 185 18 71 41 144 50 163 10 18 15 35 12 39 -8 8 -47 -29 -44 -42 1 -6 -10
-42 -24 -81 -15 -38 -43 -124 -63 -190 -21 -66 -46 -132 -57 -147 -17 -25 -25
-28 -78 -28 l-58 0 54 53 c45 43 68 80 139 222 74 151 82 174 37 109 -12 -18
-13 -18 -7 1 4 14 -3 11 -22 -13 -35 -41 -73 -44 -73 -6 0 14 5 34 10 45 18
32 15 87 -5 109 -21 24 -74 26 -121 6z m-496 -570 c5 -3 33 -65 62 -137 96
-238 116 -238 213 1 61 152 49 140 154 146 50 3 93 2 96 -3 3 -5 -11 -43 -32
-84 -182 -361 -306 -601 -317 -610 -9 -8 -16 -5 -27 13 -21 34 -337 661 -337
669 0 4 8 9 17 11 27 5 160 1 171 -6z"/>
<path d="M1373 2085 c-42 -43 -69 -87 -129 -212 -42 -87 -83 -166 -92 -176
-27 -30 -3 -32 29 -1 28 26 60 86 160 303 20 43 49 87 71 107 21 19 33 34 26
34 -6 0 -36 -25 -65 -55z"/>
<path d="M1622 1938 c-18 -18 -15 -51 4 -44 9 3 18 6 20 6 2 0 4 11 4 25 0 27
-9 32 -28 13z"/>
<path d="M1732 1892 c-29 -63 -61 -109 -80 -114 -19 -5 -68 -96 -58 -106 3 -3
6 -1 6 4 0 4 7 -2 16 -14 21 -30 65 -29 104 5 34 28 35 41 14 151 -5 26 -1 41
15 62 23 32 27 50 11 50 -6 0 -19 -17 -28 -38z m-27 -191 c-28 -55 -85 -67
-85 -17 0 16 11 32 30 46 17 12 29 27 28 33 -1 7 6 25 17 42 l20 29 3 -51 c2
-33 -3 -63 -13 -82z"/>
<path d="M1373 1831 c-22 -16 -48 -40 -59 -55 -95 -127 -83 -117 -133 -116
-25 1 -72 1 -103 1 l-58 -1 0 -395 0 -395 125 0 125 0 0 394 c0 333 -2 395
-14 398 -11 2 -9 10 10 33 l24 30 0 -32 c0 -21 7 -37 22 -47 12 -9 104 -178
212 -393 184 -363 193 -378 221 -381 30 -3 30 -2 215 369 102 205 204 398 226
429 44 60 64 94 64 107 0 4 -18 -20 -41 -55 -26 -40 -47 -62 -60 -62 -26 0
-24 11 11 73 32 57 38 95 18 115 -20 20 -46 13 -70 -19 l-23 -31 -5 28 c-8 46
-35 41 -72 -13 -18 -26 -49 -64 -68 -83 -25 -25 -28 -30 -10 -19 23 15 64 62
101 119 9 14 20 22 25 17 4 -4 -12 -48 -36 -97 l-44 -90 -46 0 -47 0 -63 -162
c-35 -90 -67 -166 -70 -171 -3 -4 -37 69 -75 163 -38 93 -74 170 -79 171 -6 1
-23 0 -38 -1 -16 -1 -28 2 -28 7 0 4 22 50 49 101 47 88 49 92 27 92 -15 0
-27 -9 -35 -27 -7 -16 -24 -48 -39 -73 -15 -26 -25 -57 -23 -72 2 -20 -2 -28
-13 -28 -17 0 -20 10 -8 26 4 5 -1 1 -10 -9 -10 -10 -27 -17 -38 -15 -20 3
-18 8 25 96 25 51 45 95 45 97 0 2 -9 3 -20 2 -11 -1 -20 -6 -20 -11 0 -6 -5
-5 -12 2 -19 19 -42 14 -85 -17z m77 -4 c0 -13 -21 -56 -46 -95 -36 -57 -51
-72 -70 -72 -15 0 -24 6 -24 15 0 43 96 175 126 175 8 0 14 -10 14 -23z m714
14 c3 -5 -10 -39 -30 -75 -22 -43 -33 -74 -29 -86 6 -18 1 -20 -39 -20 -25 0
-46 2 -46 5 0 18 56 112 87 145 36 41 48 47 57 31z m-98 -213 c25 0 34 -4 34
-16 -1 -10 -76 -165 -169 -347 -125 -247 -172 -330 -185 -330 -24 0 -370 676
-353 687 20 13 162 9 180 -4 9 -7 41 -73 70 -146 93 -229 115 -228 209 8 l54
134 44 12 c25 7 53 10 64 7 10 -3 33 -5 52 -5z m-873 -4 l37 -6 0 -354 0 -354
-85 0 -85 0 0 354 c0 330 1 355 18 358 31 7 76 8 115 2z"/>
<path d="M1842 1831 c-47 -35 -74 -79 -75 -127 -2 -65 49 -85 96 -36 33 35 79
135 75 164 -5 35 -46 35 -96 -1z m86 -9 c2 -14 -2 -22 -11 -22 -19 0 -41 -44
-34 -69 7 -26 -45 -84 -70 -79 -27 5 -27 33 0 90 43 94 107 138 115 80z"/>
<path d="M2220 1265 l0 -395 265 0 265 0 0 123 0 122 -140 -3 -140 -3 0 40 0
41 110 0 110 0 0 75 0 75 -110 0 -110 0 0 40 0 40 140 0 140 0 0 120 0 120
-265 0 -265 0 0 -395z m485 275 l0 -75 -116 -3 c-132 -3 -153 -14 -153 -78 0
-58 29 -78 120 -80 80 -3 96 -11 92 -49 -3 -18 -12 -21 -90 -25 -96 -6 -112
-14 -123 -67 -6 -28 -2 -38 23 -63 30 -30 31 -30 142 -30 l111 0 -3 -77 -3
-78 -220 0 -220 0 -3 340 c-1 187 0 346 3 353 3 10 53 12 222 10 l218 -3 0
-75z"/>
</g>
</svg>
